<?xml version="1.0" encoding="UTF-8"?>
<svg id="Lag_2" data-name="Lag 2" xmlns="http://www.w3.org/2000/svg" viewBox="0 0 152.84 142.88">
  <defs>
    <style>
      .cls-1 {
        fill: #f97a7b;
      }

      .cls-2 {
        fill: #ffc56f;
      }
    </style>
  </defs>
  <g id="Lag_1-2" data-name="Lag 1">
    <circle class="cls-1" cx="77.94" cy="65.06" r="65.06"/>
    <path class="cls-2" d="M32.43,50.58L49.49,9.84h15.28v62.53h-13.04v-38.41l-13.04,32.88h-12.06l-13.58-32.79v38.33H0V9.84h15.37l17.06,40.74Z"/>
    <path class="cls-2" d="M52.74,142.88v-66.05h13.78v27.93l24.06-27.93h15.1l-39.16,44.91v21.14h-13.78ZM90.58,142.88l-16.8-32.08,9.62-10.38,23.21,42.46h-16.04Z"/>
    <path class="cls-2" d="M96.87,70.83l20.81-59.44h12.74l-20.13,59.44h-13.42ZM111.65,57.16v-10.7h27.34v10.7h-27.34ZM139.93,70.83l-19.53-59.44h11.72l20.72,59.44h-12.91Z"/>
  </g>
</svg>